<?xml version="1.0" encoding="utf-8"?>
<!-- Generator: Adobe Illustrator 24.1.2, SVG Export Plug-In . SVG Version: 6.00 Build 0)  -->
<svg version="1.1" id="Layer_1" xmlns="http://www.w3.org/2000/svg" xmlns:xlink="http://www.w3.org/1999/xlink" x="0px" y="0px"
	 viewBox="0 0 39 39" style="enable-background:new 0 0 39 39;" xml:space="preserve">
<style type="text/css">
	.st0{fill:#FFFFFF;}
	.st1{fill:#27AAE1;}
</style>
<path class="st0" d="M14.4,8.1L11,18.4l3.8,12.5H8.6l-2.5-9.8v9.8H0.3V8.1h5.9V17l2.7-8.9C8.9,8.1,14.4,8.1,14.4,8.1z"/>
<g>
	<path class="st0" d="M37.6,8.1l-2.1,10.1l3.2,12.7h-5.5c-0.6-2.3-1.2-5.1-1.8-8.3c-0.1,1.4-0.4,3-0.6,4.6L30.2,31h-5.8l2.2-12.7
		L24.4,8.2h5.7c0.1,0.6,0.3,1.7,0.6,3.2c0.2,1.1,0.4,2.2,0.6,3.1l1.3-6.2h5V8.1z"/>
</g>
<g>
	<path class="st1" d="M20.6,12.3v-1.9h0.5c0.2,0,0.4,0,0.4-0.1c0.1-0.1,0.1-0.1,0.1-0.3c0-0.1-0.1-0.2-0.1-0.3
		c-0.1-0.1-0.2-0.1-0.4-0.1c-0.2,0-0.4,0.1-0.5,0.1c-0.1,0.1-0.3,0.3-0.4,0.6c-0.5,0.9-0.9,1.5-1.2,1.8c-0.3,0.2-0.8,0.4-1.4,0.4
		c-0.5,0-0.9-0.1-1.1-0.2s-0.4-0.4-0.6-0.8c-0.1-0.4-0.2-0.9-0.2-1.4c0-0.6,0.1-1.1,0.3-1.4c0.2-0.4,0.4-0.6,0.7-0.8
		c0.3-0.1,0.6-0.2,1.2-0.2h0.4v2h-0.9c-0.3,0-0.4,0-0.5,0.1c-0.1,0.1-0.1,0.1-0.1,0.3s0.1,0.2,0.1,0.3s0.2,0.1,0.4,0.1
		c0.4,0,0.6-0.1,0.8-0.2s0.4-0.4,0.6-1c0.3-0.5,0.5-0.9,0.6-1.1C19.6,8,19.7,7.9,20,7.7c0.3-0.1,0.5-0.1,0.9-0.1
		c0.5,0,0.9,0.1,1.2,0.2c0.2,0.1,0.4,0.4,0.6,0.8c0.1,0.4,0.2,0.8,0.2,1.3c0,0.6-0.1,1-0.2,1.4c-0.1,0.4-0.4,0.6-0.6,0.8
		c-0.2,0.1-0.6,0.2-1.2,0.2L20.6,12.3L20.6,12.3z"/>
	<path class="st1" d="M22.7,21.2l-6.9-0.9v-2.7c1.1-0.2,2.3-0.4,3.6-0.6c-0.6-0.1-1.8-0.3-3.6-0.6v-2.7l6.9-0.9v2.1L20.3,15L18,15.2
		c1.2,0.1,2.8,0.3,4.8,0.6v2.2c-0.2,0-0.9,0.1-2.3,0.2l-2.7,0.2c1.7,0.1,3.3,0.3,4.9,0.6C22.7,19.1,22.7,21.2,22.7,21.2z"/>
	<path class="st1" d="M22.7,25.2l-6.9,1.2v-2.2l1.2-0.1v-0.8l-1.2-0.1v-2.2l6.9,1.1V25.2z M18.2,24c0.8-0.1,1.7-0.2,2.9-0.4
		c-1.3-0.2-2.3-0.4-2.9-0.4V24z"/>
	<path class="st1" d="M22.7,26.8V29c0,0.6-0.1,1-0.1,1.4c-0.1,0.3-0.2,0.6-0.4,0.7c-0.1,0.1-0.3,0.3-0.5,0.3
		c-0.2,0.1-0.5,0.1-0.9,0.1h-0.6c-0.4,0-0.8-0.1-0.9-0.1c-0.2-0.1-0.4-0.3-0.4-0.6c-0.1-0.3-0.1-0.6-0.1-1.2V29h-2.8v-2.2H22.7z
		 M21.5,29h-1.7c0,0.1,0,0.1,0,0.1c0,0.2,0.1,0.4,0.1,0.4c0.1,0.1,0.2,0.1,0.5,0.1H21c0.2,0,0.4-0.1,0.4-0.1S21.5,29.2,21.5,29z"/>
</g>
</svg>
