<?xml version="1.0" encoding="utf-8"?>
<!-- Generator: Adobe Illustrator 24.1.2, SVG Export Plug-In . SVG Version: 6.00 Build 0)  -->
<svg version="1.1" id="Layer_1" xmlns="http://www.w3.org/2000/svg" xmlns:xlink="http://www.w3.org/1999/xlink" x="0px" y="0px"
	 viewBox="0 0 129.6 33" style="enable-background:new 0 0 129.6 33;" xml:space="preserve">
<style type="text/css">
	.st0{fill:#FFFFFF;}
	.st1{fill:#27AAE1;}
</style>
<g>
	<path class="st0" d="M19.8,0.7L15.1,15l5.2,17.3h-8.5L8.4,18.7v13.6H0.2V0.7h8.2V13l3.7-12.3H19.8z"/>
	<path class="st0" d="M29.9,0.7v31.6h-8.2V0.7H29.9z"/>
	<path class="st0" d="M50.6,10.3h-7.6V7.9c0-1.1-0.1-1.8-0.3-2.1c-0.2-0.3-0.5-0.4-1-0.4c-0.5,0-0.9,0.2-1.1,0.6
		c-0.3,0.4-0.4,1-0.4,1.8c0,1.1,0.1,1.9,0.4,2.4c0.3,0.5,1,1.2,2.3,1.9c3.7,2.2,6,4,6.9,5.3c1,1.4,1.4,3.6,1.4,6.7
		c0,2.3-0.3,3.9-0.8,5s-1.5,2-3.1,2.7S44.1,33,42.1,33c-2.2,0-4.1-0.4-5.6-1.3s-2.6-1.9-3.1-3.2s-0.7-3.1-0.7-5.5V21h7.6v3.8
		c0,1.2,0.1,1.9,0.3,2.3s0.6,0.5,1.1,0.5s1-0.2,1.2-0.6s0.4-1.1,0.4-1.9c0-1.9-0.3-3.1-0.8-3.7c-0.5-0.6-1.8-1.5-3.8-2.9
		c-2-1.4-3.4-2.3-4.1-2.9c-0.7-0.6-1.2-1.5-1.7-2.5c-0.4-1.1-0.7-2.5-0.7-4.1c0-2.4,0.3-4.2,0.9-5.3c0.6-1.1,1.6-2,3-2.6
		c1.4-0.6,3-0.9,5-0.9c2.1,0,4,0.3,5.5,1c1.5,0.7,2.5,1.6,3,2.6c0.5,1,0.7,2.8,0.7,5.3V10.3z"/>
	<path class="st0" d="M72.7,0.7v31.6h-8.2V19h-2.5v13.3h-8.2V0.7h8.2V12h2.5V0.7H72.7z"/>
	<path class="st0" d="M94.7,0.7v21.1c0,2.4-0.1,4.1-0.2,5s-0.6,2-1.4,3s-1.8,1.8-3,2.3S87.3,33,85.6,33c-1.9,0-3.6-0.3-5-0.9
		s-2.5-1.4-3.2-2.4s-1.1-2.1-1.3-3.2s-0.2-3.5-0.2-7V0.7h8.2v23.7c0,1.4,0.1,2.3,0.2,2.6s0.5,0.6,0.9,0.6c0.5,0,0.9-0.2,1-0.6
		s0.2-1.4,0.2-3V0.7H94.7z"/>
</g>
<g>
	<path class="st0" d="M127.8,0.7l-2.9,14l4.4,17.6h-7.6c-0.9-3.2-1.7-7-2.5-11.5c-0.2,2-0.5,4.1-0.9,6.4l-0.8,5.2h-8l3-17.6l-3-14
		h7.9c0.1,0.9,0.4,2.3,0.9,4.4c0.3,1.5,0.6,3,0.8,4.3l1.8-8.6H127.8z"/>
</g>
<g>
	<path class="st1" d="M104.2,6.5V3.8h0.7c0.3,0,0.5,0,0.6-0.1c0.1-0.1,0.1-0.2,0.1-0.4c0-0.2-0.1-0.3-0.2-0.4
		c-0.1-0.1-0.3-0.1-0.6-0.1c-0.3,0-0.6,0.1-0.7,0.2c-0.2,0.1-0.4,0.4-0.6,0.8c-0.7,1.3-1.2,2.1-1.6,2.5c-0.4,0.3-1.1,0.5-2,0.5
		c-0.7,0-1.2-0.1-1.5-0.3s-0.6-0.6-0.8-1.1c-0.2-0.5-0.3-1.2-0.3-1.9c0-0.8,0.1-1.5,0.4-2c0.3-0.6,0.6-0.9,1-1.1s0.9-0.3,1.7-0.3
		h0.6v2.8h-1.2c-0.4,0-0.6,0-0.7,0.1c-0.1,0.1-0.2,0.2-0.2,0.4c0,0.2,0.1,0.3,0.2,0.4C99.2,3.9,99.4,4,99.7,4c0.6,0,0.9-0.1,1.1-0.3
		c0.2-0.2,0.5-0.6,0.9-1.4c0.4-0.7,0.7-1.2,0.9-1.5c0.2-0.2,0.4-0.4,0.8-0.6s0.7-0.2,1.3-0.2c0.7,0,1.3,0.1,1.6,0.3s0.6,0.6,0.8,1.1
		c0.2,0.5,0.3,1.1,0.3,1.8c0,0.8-0.1,1.4-0.3,2c-0.2,0.5-0.5,0.9-0.8,1.1c-0.3,0.2-0.9,0.3-1.6,0.3H104.2z"/>
	<path class="st1" d="M107.1,18.9l-9.6-1.3v-3.7c1.5-0.3,3.2-0.6,5-0.9c-0.8-0.1-2.5-0.4-5-0.8V8.4l9.6-1.3V10l-3.3,0.3l-3.2,0.3
		c1.7,0.1,3.9,0.4,6.6,0.8v3.1c-0.3,0-1.3,0.1-3.2,0.3l-3.7,0.3c2.3,0.2,4.6,0.4,6.8,0.8V18.9z"/>
	<path class="st1" d="M107.1,24.4l-9.6,1.7v-3l1.7-0.2v-1.1l-1.7-0.2v-3.1l9.6,1.5V24.4z M100.9,22.8c1.1-0.1,2.4-0.3,4-0.5
		c-1.8-0.3-3.2-0.5-4-0.6V22.8z"/>
	<path class="st1" d="M107.1,26.6v3c0,0.8-0.1,1.4-0.2,1.9c-0.1,0.4-0.3,0.8-0.5,1c-0.2,0.2-0.4,0.4-0.7,0.4
		c-0.3,0.1-0.7,0.1-1.3,0.1h-0.8c-0.6,0-1.1-0.1-1.3-0.2c-0.3-0.2-0.5-0.4-0.6-0.8c-0.2-0.4-0.2-0.9-0.2-1.6v-0.8h-3.9v-3H107.1z
		 M105.4,29.6H103c0,0.1,0,0.2,0,0.2c0,0.3,0.1,0.5,0.2,0.6s0.3,0.2,0.7,0.2h0.8c0.3,0,0.5-0.1,0.6-0.2S105.4,30,105.4,29.6z"/>
</g>
</svg>
