<?xml version="1.0" encoding="utf-8"?>
<!-- Generator: Adobe Illustrator 24.1.2, SVG Export Plug-In . SVG Version: 6.00 Build 0)  -->
<svg version="1.1" id="Layer_1" xmlns="http://www.w3.org/2000/svg" xmlns:xlink="http://www.w3.org/1999/xlink" x="0px" y="0px"
	 viewBox="0 0 42 50" style="enable-background:new 0 0 42 50;" xml:space="preserve">
<g>
	<g>
		<path d="M37.7,27.5c-2.1-2.4-5.1-4.9-8.5-7.2c-0.1-1.9-0.4-3.7-0.7-5.5c1.2-0.4,2.3-0.7,3.4-0.9c3.6-0.7,6.3-0.4,7,0.8
			c0.7,1.3-0.5,3.9-3.2,6.9c-0.4,0.4-0.4,1.1,0.1,1.5c0.4,0.4,1.1,0.4,1.5-0.1c3.5-3.8,4.8-7.2,3.5-9.4c-1.2-2.2-4.4-2.8-9.2-1.8
			c-3.2,0.6-6.8,1.9-10.5,3.7c-1.7-0.8-3.4-1.6-5.1-2.2c1.2-5.5,3.2-9,5.1-9c1.5,0,3.1,2.3,4.3,6c0.2,0.6,0.8,0.9,1.3,0.7
			c0.6-0.2,0.9-0.8,0.7-1.3c-1.6-4.9-3.8-7.5-6.3-7.5c-3.5,0-6,5-7.3,11.5c0,0,0,0,0,0c0,0.1,0,0.2-0.1,0.3c-0.4,2-0.7,4.1-0.8,6.3
			c-1.6,1.1-3.1,2.2-4.4,3.3c-0.9-0.8-1.7-1.7-2.4-2.5c-2.5-2.8-3.5-5.2-2.8-6.4c0.7-1.3,3.6-1.5,7.5-0.7c0.6,0.1,1.1-0.2,1.3-0.8
			c0.1-0.6-0.2-1.1-0.8-1.3c-5.1-1.1-8.6-0.5-9.8,1.7c-1.2,2.2-0.2,5.2,3,8.9c2.1,2.4,5.1,4.9,8.5,7.2c0.1,1.9,0.4,3.7,0.7,5.5
			c-1.2,0.4-2.3,0.7-3.4,0.9c-3.6,0.7-6.3,0.4-7-0.8c-0.8-1.3,0.5-4,3.3-6.9c0.4-0.4,0.4-1.1-0.1-1.5c-0.4-0.4-1.1-0.4-1.5,0.1
			c-3.6,3.9-4.8,7.2-3.5,9.5c0.9,1.5,2.7,2.3,5.3,2.3c1.2,0,2.5-0.1,3.9-0.4c3.2-0.6,6.8-1.9,10.5-3.7c1.7,0.8,3.4,1.6,5.1,2.2
			c-1.2,5.5-3.2,9-5.1,9c-1.5,0-3.1-2.3-4.3-6c-0.2-0.6-0.8-0.9-1.3-0.7c-0.6,0.2-0.9,0.8-0.7,1.3c1.6,4.9,3.8,7.5,6.3,7.5
			c3.5,0,6-5,7.3-11.5c0,0,0,0,0,0c0-0.1,0-0.2,0.1-0.3c0.4-2,0.7-4.1,0.8-6.3c1.6-1.1,3.1-2.2,4.4-3.3c0.9,0.8,1.7,1.7,2.4,2.5
			c2.5,2.8,3.5,5.2,2.8,6.4c-0.7,1.3-3.6,1.5-7.5,0.7c-0.6-0.1-1.1,0.2-1.3,0.8c-0.1,0.6,0.2,1.1,0.8,1.3c1.7,0.4,3.2,0.6,4.5,0.6
			c2.7,0,4.5-0.8,5.4-2.2C42,34.2,40.9,31.2,37.7,27.5z M10,25c0.8-0.7,1.7-1.4,2.6-2c0,0.7,0,1.4,0,2c0,0.7,0,1.4,0,2
			C11.7,26.4,10.8,25.7,10,25z M26.5,15.5c0.2,1.1,0.3,2.2,0.4,3.3c-0.6-0.4-1.2-0.7-1.7-1c-0.6-0.3-1.2-0.7-1.8-1
			C24.5,16.3,25.5,15.8,26.5,15.5z M15.5,15.5c1,0.4,2,0.8,3.1,1.3c-0.6,0.3-1.2,0.6-1.8,1c-0.6,0.3-1.2,0.7-1.7,1
			C15.2,17.6,15.3,16.5,15.5,15.5z M15.5,34.5c-0.2-1.1-0.3-2.2-0.4-3.3c0.6,0.4,1.2,0.7,1.7,1c0.6,0.3,1.2,0.7,1.8,1
			C17.5,33.7,16.5,34.2,15.5,34.5z M26.5,34.5c-1-0.4-2-0.8-3.1-1.3c0.6-0.3,1.2-0.6,1.8-1c0.6-0.3,1.2-0.7,1.7-1
			C26.8,32.4,26.7,33.5,26.5,34.5z M27.2,28.6c-1,0.6-2,1.3-3,1.9c-1,0.6-2.1,1.2-3.1,1.7c-1-0.5-2.1-1.1-3.1-1.7
			c-1-0.6-2.1-1.2-3-1.9c-0.1-1.2-0.1-2.4-0.1-3.6c0-1.2,0-2.4,0.1-3.6c1-0.6,2-1.3,3-1.9c1-0.6,2.1-1.2,3.1-1.7
			c1,0.5,2.1,1.1,3.1,1.7c1,0.6,2.1,1.2,3,1.9c0.1,1.2,0.1,2.4,0.1,3.6C27.3,26.2,27.2,27.4,27.2,28.6z M29.4,27c0-0.7,0-1.4,0-2
			c0-0.7,0-1.4,0-2c0.9,0.7,1.8,1.4,2.6,2C31.2,25.7,30.3,26.4,29.4,27z"/>
	</g>
</g>
<g>
	<g>
		<path d="M21,21.4c-2,0-3.6,1.6-3.6,3.6s1.6,3.6,3.6,3.6s3.6-1.6,3.6-3.6S23,21.4,21,21.4z"/>
	</g>
</g>
</svg>
